<svg version="1.1" id="Layer_1" xmlns="http://www.w3.org/2000/svg" xmlns:xlink="http://www.w3.org/1999/xlink" x="0px" y="0px" viewBox="0 0 271.3 62.3" style="enable-background:new 0 0 271.3 62.3;" xml:space="preserve">
<style type="text/css" style="">
	.st0{fill:#FFFFFF;}
</style>
<g>
	<path class="st0" d="M16.8,6.7H39c1.8,0,3.3,0.2,4.5,0.6c1.2,0.4,2.3,1.1,3,2.1c0.8,1,1.3,2.2,1.7,3.7c0.4,1.5,0.5,3.3,0.5,5.5   c0,2.6-0.2,4.9-0.7,6.7c-0.5,1.9-1.2,3.2-2.1,4.2c-0.7,0.7-1.5,1.2-2.4,1.5c-0.9,0.3-2.1,0.5-3.6,0.5H29l-2.9-7.7h10.1   c0.9,0,1.7-0.1,2.3-0.2c0.6-0.1,1.1-0.3,1.4-0.6c0.4-0.3,0.6-0.8,0.7-1.3c0.1-0.6,0.2-1.3,0.2-2.1c0-0.9,0-1.6,0-2.2   c0-0.6-0.1-1.1-0.2-1.4c-0.1-0.4-0.2-0.7-0.3-0.9c-0.2-0.2-0.3-0.4-0.6-0.6c-0.3-0.2-0.6-0.3-0.9-0.4c-0.4-0.1-0.8-0.1-1.4-0.1   H25.1v25.7h-8.3V6.7z"/>
	<path class="st0" d="M53,6.7h24.2c1.8,0,3.4,0.2,4.6,0.5c1.3,0.4,2.3,1,3.1,1.8c0.8,0.8,1.3,1.9,1.7,3.2c0.3,1.4,0.5,3,0.5,5   c0,3.5-0.6,5.9-1.7,7.3c-0.4,0.5-0.8,0.8-1.3,1c-0.5,0.2-1.2,0.4-2.2,0.6c0.6,0.3,1.1,0.5,1.5,0.7c0.4,0.2,0.7,0.4,1,0.6   c0.3,0.2,0.5,0.4,0.7,0.6c0.2,0.2,0.4,0.4,0.6,0.6c0.4,0.5,0.6,1,0.8,1.8c0.2,0.7,0.3,1.5,0.3,2.3v6.9h-8.4v-5.7   c0-1.3-0.3-2.1-1-2.7c-0.7-0.5-1.8-0.8-3.3-0.8h-9l-2.9-8h12.9c0.5,0,0.9,0,1.2,0c0.3,0,0.5,0,0.7,0c0.2,0,0.3-0.1,0.4-0.1   c0.1-0.1,0.2-0.1,0.4-0.2c0.4-0.3,0.6-0.7,0.8-1.3c0.1-0.6,0.2-1.4,0.2-2.5c0-1.5-0.2-2.5-0.7-3.1c-0.5-0.6-1.4-0.8-2.6-0.8H61.7   v25.2H53V6.7z"/>
	<path class="st0" d="M120.4,14.1H99.6v18.4H121v7.3H98.3c-3.1,0-5.1-1-6-2.9c-0.2-0.4-0.4-0.9-0.5-1.3c-0.1-0.4-0.2-0.9-0.3-1.5   c-0.1-0.6-0.1-1.2-0.1-2c0-0.8,0-1.7,0-2.9V16.3c0-1.9,0.1-3.5,0.3-4.7c0.2-1.2,0.5-2.2,1-2.9c0.5-0.7,1.2-1.2,2-1.5   c0.8-0.3,1.9-0.4,3.2-0.4h22.5V14.1z M116.7,19.4l2.4,6.5h-16.7l-2.3-6.5H116.7z"/>
	<path class="st0" d="M134.6,6.7c2.1,0,3.6,0.5,4.4,1.6c0.2,0.2,0.3,0.4,0.5,0.5c0.1,0.1,0.2,0.4,0.4,0.7c0.2,0.3,0.4,0.8,0.6,1.3   c0.2,0.6,0.6,1.4,1,2.4l6.9,15.2l7.3-16.3c0.1-0.3,0.3-0.7,0.5-1.1c0.2-0.4,0.5-0.9,0.7-1.3c0.2-0.4,0.5-0.8,0.7-1.1   c0.2-0.3,0.4-0.6,0.5-0.7c0.6-0.7,2-1.1,4.1-1.1h8.1v33.1h-7.6V15.1l-11.2,24.7h-6.2l-11.7-24.4v24.4h-8.3V6.7H134.6z"/>
	<path class="st0" d="M184.1,6.7v33.1h-8.3V6.7H184.1z"/>
	<path class="st0" d="M218,14.1h-20.8v18.4h21.5v7.3h-22.7c-3.1,0-5.1-1-6-2.9c-0.2-0.4-0.4-0.9-0.5-1.3c-0.1-0.4-0.2-0.9-0.3-1.5   c-0.1-0.6-0.1-1.2-0.1-2s0-1.7,0-2.9V16.3c0-1.9,0.1-3.5,0.3-4.7c0.2-1.2,0.5-2.2,1-2.9c0.5-0.7,1.2-1.2,2-1.5   c0.8-0.3,1.9-0.4,3.2-0.4H218V14.1z M214.3,19.4l2.4,6.5h-16.7l-2.3-6.5H214.3z"/>
	<path class="st0" d="M223,6.7h24.2c1.8,0,3.4,0.2,4.6,0.5c1.3,0.4,2.3,1,3.1,1.8c0.8,0.8,1.3,1.9,1.7,3.2c0.3,1.4,0.5,3,0.5,5   c0,3.5-0.6,5.9-1.7,7.3c-0.4,0.5-0.8,0.8-1.3,1c-0.5,0.2-1.2,0.4-2.2,0.6c0.6,0.3,1.1,0.5,1.5,0.7c0.4,0.2,0.7,0.4,1,0.6   c0.3,0.2,0.5,0.4,0.7,0.6s0.4,0.4,0.6,0.6c0.4,0.5,0.6,1,0.8,1.8c0.2,0.7,0.3,1.5,0.3,2.3v6.9h-8.4v-5.7c0-1.3-0.3-2.1-1-2.7   c-0.7-0.5-1.8-0.8-3.3-0.8h-9l-2.9-8h12.9c0.5,0,0.9,0,1.2,0c0.3,0,0.5,0,0.7,0c0.2,0,0.3-0.1,0.4-0.1c0.1-0.1,0.2-0.1,0.4-0.2   c0.4-0.3,0.6-0.7,0.8-1.3c0.2-0.6,0.2-1.4,0.2-2.5c0-1.5-0.2-2.5-0.7-3.1c-0.5-0.6-1.4-0.8-2.6-0.8h-13.7v25.2H223V6.7z"/>
</g>
<g>
	<path class="st0" d="M24,46.3h-2.9V57h-0.8V46.3h-2.9v-0.9H24V46.3z"/>
	<path class="st0" d="M28.9,52.2h-2.4V57h-0.8V45.5h2.8c0.9,0,1.7,0.3,2.2,0.9s0.8,1.4,0.8,2.5c0,0.7-0.2,1.4-0.5,2   c-0.3,0.6-0.8,1-1.3,1.2l2.2,4.9V57H31L28.9,52.2z M26.5,51.4h2.2c0.6,0,1.1-0.2,1.5-0.7c0.4-0.5,0.5-1.1,0.5-1.8   c0-0.8-0.2-1.4-0.6-1.9c-0.4-0.4-0.9-0.7-1.6-0.7h-2V51.4z"/>
	<path class="st0" d="M38.4,53.8h-3.9L33.6,57h-0.8l3.3-11.5h0.8L40.1,57h-0.8L38.4,53.8z M34.8,52.9h3.4l-1.7-6.2L34.8,52.9z"/>
	<path class="st0" d="M48.2,57h-0.8l-4.9-9.8V57h-0.8V45.5h0.8l4.9,9.8v-9.8h0.8V57z"/>
	<path class="st0" d="M55.5,54.2c0-0.6-0.2-1.2-0.5-1.5c-0.3-0.4-0.9-0.7-1.8-1.1c-0.9-0.3-1.6-0.7-2-1.1c-0.6-0.5-0.8-1.3-0.8-2.2   c0-0.9,0.3-1.6,0.8-2.2c0.5-0.6,1.2-0.8,2.1-0.8c0.9,0,1.6,0.3,2.2,1c0.6,0.6,0.8,1.5,0.8,2.5h-0.8c0-0.8-0.2-1.4-0.6-1.9   c-0.4-0.5-0.9-0.7-1.6-0.7c-0.7,0-1.2,0.2-1.5,0.6s-0.6,0.9-0.6,1.5c0,0.6,0.2,1.1,0.5,1.4c0.4,0.4,0.9,0.7,1.7,1   c0.8,0.3,1.4,0.6,1.8,0.9s0.7,0.7,0.9,1.1c0.2,0.4,0.3,0.9,0.3,1.5c0,0.9-0.3,1.6-0.8,2.2c-0.5,0.6-1.3,0.8-2.2,0.8   c-0.6,0-1.2-0.1-1.7-0.4c-0.5-0.3-0.9-0.7-1.2-1.2s-0.4-1.1-0.4-1.8h0.8c0,0.8,0.2,1.5,0.7,1.9s1,0.7,1.8,0.7   c0.7,0,1.2-0.2,1.6-0.6C55.3,55.4,55.5,54.8,55.5,54.2z"/>
	<path class="st0" d="M59,52.3V57h-0.8V45.5h3c0.9,0,1.6,0.3,2.2,0.9c0.5,0.6,0.8,1.5,0.8,2.5c0,1.1-0.3,1.9-0.8,2.5   c-0.5,0.6-1.2,0.9-2.2,0.9H59z M59,51.5h2.2c0.7,0,1.2-0.2,1.6-0.7c0.4-0.4,0.6-1.1,0.6-1.9s-0.2-1.4-0.6-1.9s-0.9-0.7-1.6-0.7H59   V51.5z"/>
	<path class="st0" d="M72.5,52.5c0,1.5-0.3,2.6-0.9,3.5s-1.4,1.2-2.5,1.2c-1,0-1.9-0.4-2.5-1.2c-0.6-0.8-0.9-2-0.9-3.4V50   c0-1.5,0.3-2.6,0.9-3.5c0.6-0.8,1.4-1.2,2.5-1.2c1.1,0,1.9,0.4,2.5,1.2c0.6,0.8,0.9,2,0.9,3.5V52.5z M71.6,50   c0-1.3-0.2-2.2-0.7-2.8c-0.4-0.6-1.1-0.9-1.9-0.9c-0.8,0-1.4,0.3-1.9,0.9c-0.4,0.6-0.7,1.5-0.7,2.8v2.6c0,1.3,0.2,2.2,0.7,2.9   c0.5,0.6,1.1,1,1.9,1c0.8,0,1.5-0.3,1.9-0.9c0.4-0.6,0.6-1.6,0.6-2.9V50z"/>
	<path class="st0" d="M77.8,52.2h-2.4V57h-0.8V45.5h2.8c0.9,0,1.7,0.3,2.2,0.9s0.8,1.4,0.8,2.5c0,0.7-0.2,1.4-0.5,2   c-0.3,0.6-0.8,1-1.3,1.2l2.2,4.9V57h-0.9L77.8,52.2z M75.4,51.4h2.2c0.6,0,1.1-0.2,1.5-0.7c0.4-0.5,0.5-1.1,0.5-1.8   c0-0.8-0.2-1.4-0.6-1.9c-0.4-0.4-0.9-0.7-1.6-0.7h-2V51.4z"/>
	<path class="st0" d="M88,46.3H85V57h-0.8V46.3h-2.9v-0.9H88V46.3z"/>
	<path class="st0" d="M93.8,53.8h-3.9L89,57h-0.8l3.3-11.5h0.8L95.5,57h-0.8L93.8,53.8z M90.2,52.9h3.4l-1.7-6.2L90.2,52.9z"/>
	<path class="st0" d="M102.1,46.3h-2.9V57h-0.8V46.3h-2.9v-0.9h6.7V46.3z"/>
	<path class="st0" d="M104.7,57h-0.8V45.5h0.8V57z"/>
	<path class="st0" d="M113.7,52.5c0,1.5-0.3,2.6-0.9,3.5s-1.4,1.2-2.5,1.2c-1,0-1.9-0.4-2.5-1.2c-0.6-0.8-0.9-2-0.9-3.4V50   c0-1.5,0.3-2.6,0.9-3.5c0.6-0.8,1.4-1.2,2.5-1.2c1.1,0,1.9,0.4,2.5,1.2c0.6,0.8,0.9,2,0.9,3.5V52.5z M112.9,50   c0-1.3-0.2-2.2-0.7-2.8c-0.4-0.6-1.1-0.9-1.9-0.9c-0.8,0-1.4,0.3-1.9,0.9c-0.4,0.6-0.7,1.5-0.7,2.8v2.6c0,1.3,0.2,2.2,0.7,2.9   c0.5,0.6,1.1,1,1.9,1c0.8,0,1.5-0.3,1.9-0.9c0.4-0.6,0.6-1.6,0.6-2.9V50z"/>
	<path class="st0" d="M122.4,57h-0.8l-4.9-9.8V57h-0.8V45.5h0.8l4.9,9.8v-9.8h0.8V57z"/>
	<path class="st0" d="M129.5,50.7c-0.4-0.6-0.6-1.1-0.8-1.5c-0.1-0.4-0.2-0.8-0.2-1.2c0-0.8,0.2-1.5,0.6-1.9   c0.4-0.5,0.9-0.7,1.5-0.7c0.6,0,1,0.2,1.4,0.6s0.5,1,0.5,1.6c0,0.8-0.3,1.5-0.9,2.2l-1,1l2.3,3.6c0.3-0.8,0.5-1.6,0.5-2.6h0.7   c0,1.3-0.3,2.4-0.8,3.3l1.2,1.9h-1l-0.7-1.1c-0.3,0.4-0.7,0.7-1.1,0.9c-0.4,0.2-0.8,0.3-1.3,0.3c-0.8,0-1.5-0.3-2-0.8   c-0.5-0.6-0.7-1.3-0.7-2.3c0-0.6,0.1-1.1,0.4-1.6C128.3,52,128.8,51.4,129.5,50.7z M130.4,56.3c0.7,0,1.4-0.4,1.9-1.1l-2.4-3.7   l-0.1-0.1l-0.3,0.3c-0.8,0.8-1.1,1.6-1.1,2.4c0,0.7,0.2,1.2,0.5,1.7C129.4,56.1,129.8,56.3,130.4,56.3z M129.3,47.9   c0,0.6,0.3,1.4,0.8,2.2l0.7-0.8c0.2-0.2,0.5-0.5,0.6-0.8c0.2-0.3,0.2-0.6,0.2-1c0-0.4-0.1-0.8-0.3-1s-0.5-0.4-0.8-0.4   c-0.4,0-0.7,0.2-0.9,0.5C129.4,47,129.3,47.4,129.3,47.9z"/>
	<path class="st0" d="M140.9,53.9l0.2,1.7l0.3-1.6l1.9-8.5h0.7l1.8,8.5l0.3,1.6l0.3-1.7l1.5-8.4h0.8L146.6,57h-0.8l-1.9-9l-0.2-1.1   l-0.2,1.1l-2,9h-0.8l-2.2-11.5h0.8L140.9,53.9z"/>
	<path class="st0" d="M154.9,53.8H151l-0.9,3.2h-0.8l3.3-11.5h0.8l3.3,11.5h-0.8L154.9,53.8z M151.2,52.9h3.4l-1.7-6.2L151.2,52.9z"/>
	<path class="st0" d="M161.4,52.2h-2.4V57h-0.8V45.5h2.8c0.9,0,1.7,0.3,2.2,0.9c0.5,0.6,0.8,1.4,0.8,2.5c0,0.7-0.2,1.4-0.5,2   s-0.8,1-1.3,1.2l2.2,4.9V57h-0.9L161.4,52.2z M158.9,51.4h2.2c0.6,0,1.1-0.2,1.5-0.7c0.4-0.5,0.5-1.1,0.5-1.8   c0-0.8-0.2-1.4-0.6-1.9c-0.4-0.4-0.9-0.7-1.6-0.7h-2V51.4z"/>
	<path class="st0" d="M171,51.5h-4v4.7h4.6V57h-5.4V45.5h5.4v0.9H167v4.3h4V51.5z"/>
	<path class="st0" d="M179.9,57h-0.8v-5.5h-4.9V57h-0.8V45.5h0.8v5.2h4.9v-5.2h0.8V57z"/>
	<path class="st0" d="M188.8,52.5c0,1.5-0.3,2.6-0.9,3.5s-1.4,1.2-2.5,1.2c-1,0-1.9-0.4-2.5-1.2c-0.6-0.8-0.9-2-0.9-3.4V50   c0-1.5,0.3-2.6,0.9-3.5c0.6-0.8,1.4-1.2,2.5-1.2c1.1,0,1.9,0.4,2.5,1.2c0.6,0.8,0.9,2,0.9,3.5V52.5z M188,50c0-1.3-0.2-2.2-0.7-2.8   c-0.4-0.6-1.1-0.9-1.9-0.9c-0.8,0-1.4,0.3-1.9,0.9c-0.4,0.6-0.7,1.5-0.7,2.8v2.6c0,1.3,0.2,2.2,0.7,2.9c0.5,0.6,1.1,1,1.9,1   c0.8,0,1.5-0.3,1.9-0.9c0.4-0.6,0.6-1.6,0.6-2.9V50z"/>
	<path class="st0" d="M197,45.5v8.2c0,1.1-0.3,2-0.8,2.6c-0.5,0.6-1.3,0.9-2.3,0.9c-1,0-1.8-0.3-2.3-0.9c-0.5-0.6-0.8-1.5-0.8-2.6   v-8.1h0.8v8.1c0,1.8,0.8,2.7,2.3,2.7c1.5,0,2.2-0.9,2.3-2.7v-8.2H197z"/>
	<path class="st0" d="M204.1,54.2c0-0.6-0.2-1.2-0.5-1.5c-0.3-0.4-0.9-0.7-1.8-1.1c-0.9-0.3-1.6-0.7-2-1.1c-0.6-0.5-0.8-1.3-0.8-2.2   c0-0.9,0.3-1.6,0.8-2.2c0.5-0.6,1.2-0.8,2.1-0.8c0.9,0,1.6,0.3,2.2,1c0.6,0.6,0.8,1.5,0.8,2.5h-0.8c0-0.8-0.2-1.4-0.6-1.9   c-0.4-0.5-0.9-0.7-1.6-0.7c-0.7,0-1.2,0.2-1.5,0.6s-0.6,0.9-0.6,1.5c0,0.6,0.2,1.1,0.5,1.4c0.4,0.4,0.9,0.7,1.7,1   c0.8,0.3,1.4,0.6,1.8,0.9s0.7,0.7,0.9,1.1c0.2,0.4,0.3,0.9,0.3,1.5c0,0.9-0.3,1.6-0.8,2.2c-0.5,0.6-1.3,0.8-2.2,0.8   c-0.6,0-1.2-0.1-1.7-0.4c-0.5-0.3-0.9-0.7-1.2-1.2c-0.3-0.5-0.4-1.1-0.4-1.8h0.8c0,0.8,0.2,1.5,0.7,1.9c0.4,0.5,1,0.7,1.8,0.7   c0.7,0,1.2-0.2,1.6-0.6C203.9,55.4,204.1,54.8,204.1,54.2z"/>
	<path class="st0" d="M207.7,57h-0.8V45.5h0.8V57z"/>
	<path class="st0" d="M216.8,57H216l-4.9-9.8V57h-0.8V45.5h0.8l4.9,9.8v-9.8h0.8V57z"/>
	<path class="st0" d="M225.6,55.7c-0.3,0.5-0.8,0.9-1.3,1.1s-1.1,0.4-1.7,0.4c-1.1,0-1.9-0.4-2.5-1.2s-0.9-1.9-0.9-3.3v-2.8   c0-1.5,0.3-2.6,0.9-3.4s1.4-1.2,2.5-1.2c1,0,1.7,0.3,2.2,0.9c0.5,0.6,0.8,1.4,0.9,2.5h-0.8c-0.1-0.9-0.3-1.5-0.7-1.9   s-0.9-0.6-1.6-0.6c-0.8,0-1.5,0.3-1.9,0.9c-0.4,0.6-0.6,1.5-0.6,2.8v2.7c0,1.2,0.2,2.1,0.7,2.8c0.5,0.7,1.1,1,1.9,1   c0.9,0,1.6-0.3,2.2-1v-3h-2.3v-0.8h3.1V55.7z"/>
	<path class="st0" d="M227.7,59.2l-0.5-0.4c0.4-0.6,0.7-1.3,0.7-2v-1.2h0.8v1C228.6,57.6,228.3,58.5,227.7,59.2z"/>
	<path class="st0" d="M235,57h-0.8V45.5h0.8V57z"/>
	<path class="st0" d="M244.1,57h-0.8l-4.9-9.8V57h-0.8V45.5h0.8l4.9,9.8v-9.8h0.8V57z"/>
	<path class="st0" d="M252.7,53.4c-0.1,1.3-0.4,2.2-0.9,2.8c-0.6,0.6-1.3,0.9-2.3,0.9c-1,0-1.8-0.4-2.4-1.3c-0.6-0.8-0.9-2-0.9-3.4   V50c0-1.5,0.3-2.6,0.9-3.4c0.6-0.8,1.4-1.2,2.4-1.2c1,0,1.7,0.3,2.2,0.9c0.5,0.6,0.8,1.6,0.9,2.8h-0.8c-0.1-1-0.3-1.8-0.7-2.2   c-0.4-0.4-0.9-0.7-1.7-0.7c-0.8,0-1.4,0.3-1.8,1s-0.7,1.6-0.7,2.8v2.5c0,1.2,0.2,2.2,0.6,2.9s1,1,1.8,1c0.8,0,1.4-0.2,1.7-0.7   c0.4-0.4,0.6-1.2,0.6-2.2H252.7z"/>
	<path class="st0" d="M254.6,56.4c0-0.2,0.1-0.3,0.2-0.5c0.1-0.1,0.3-0.2,0.4-0.2s0.3,0.1,0.4,0.2c0.1,0.1,0.2,0.3,0.2,0.5   c0,0.2-0.1,0.3-0.2,0.5c-0.1,0.1-0.3,0.2-0.4,0.2s-0.3-0.1-0.4-0.2C254.6,56.8,254.6,56.6,254.6,56.4z"/>
</g>
</svg>